<?xml version="1.0" encoding="iso-8859-1"?>
<!-- Generator: Adobe Illustrator 19.0.0, SVG Export Plug-In . SVG Version: 6.00 Build 0)  -->
<svg version="1.1" id="Layer_1" xmlns="http://www.w3.org/2000/svg" xmlns:xlink="http://www.w3.org/1999/xlink" x="0px" y="0px"
	 viewBox="0 0 372.084 372.084" style="enable-background:new 0 0 372.084 372.084;" xml:space="preserve">
<path style="fill:#FFE53C;" d="M130.842,260.484l134.4,102c5.2,4,12.8,0.4,12.8-6.4v-340c0-6.8-7.6-10.4-12.8-6.4l-131.2,99.2"/>
<path style="fill:#F8D133;" d="M134.042,260.484l131.2,102c5.2,4,12.8,0.4,12.8-6.4v-40c0-22-17.2-45.6-38-52.4l-106-34.8V260.484
	L134.042,260.484z"/>
<path style="fill:#C39215;" d="M270.042,372.084c-3.6,0-6.8-1.2-9.6-3.2l-134.4-102c-3.6-2.8-4.4-7.6-1.6-11.2
	c2.8-3.6,7.6-4.4,11.2-1.6l134.4,102v-340l-131.2,99.2c-3.6,2.8-8.4,2-11.2-1.6s-2-8.4,1.6-11.2l131.2-99.2
	c4.8-3.6,11.2-4.4,16.8-1.6c5.6,2.8,8.8,8.4,8.8,14.4v340c0,6-3.6,11.6-8.8,14.4C274.842,371.684,272.442,372.084,270.042,372.084z"
	/>
<path style="fill:#FFC33B;" d="M134.042,260.084c0,8.8-7.2,16-16,16h-48c-17.6,0-32-14.4-32-32v-112c0-17.6,14.4-32,32-32h48
	c8.8,0,16,7.2,16,16v64"/>
<g>
	<path style="fill:#C39215;" d="M118.042,284.084h-48c-22,0-40-18-40-40v-112c0-22,18-40,40-40h48c13.2,0,24,10.8,24,24v64
		c0,4.4-3.6,8-8,8s-8-3.6-8-8v-64c0-4.4-3.6-8-8-8h-48c-13.2,0-24,10.8-24,24v112c0,13.2,10.8,24,24,24h48c4.4,0,8-3.6,8-8
		c0-4.4,3.6-8,8-8s8,3.6,8,8C142.042,273.284,131.242,284.084,118.042,284.084z"/>
	<path style="fill:#C39215;" d="M134.042,232.084c-4.4,0-8-3.6-8-8v-12c0-4.4,3.6-8,8-8s8,3.6,8,8v12
		C142.042,228.484,138.442,232.084,134.042,232.084z"/>
</g>
<g>
	<path style="fill:#C6490F;" d="M334.042,249.284c-2,0-4-0.8-5.6-2.4l-113.2-113.2c-3.2-3.2-3.2-8,0-11.2s8-3.2,11.2,0l113.2,113.2
		c3.2,3.2,3.2,8,0,11.2C338.042,248.484,336.042,249.284,334.042,249.284z"/>
	<path style="fill:#C6490F;" d="M220.842,249.284c-2,0-4-0.8-5.6-2.4c-3.2-3.2-3.2-8,0-11.2l113.2-113.2c3.2-3.2,8-3.2,11.2,0
		s3.2,8,0,11.2l-113.2,113.2C224.842,248.484,222.842,249.284,220.842,249.284z"/>
</g>
<g>
</g>
<g>
</g>
<g>
</g>
<g>
</g>
<g>
</g>
<g>
</g>
<g>
</g>
<g>
</g>
<g>
</g>
<g>
</g>
<g>
</g>
<g>
</g>
<g>
</g>
<g>
</g>
<g>
</g>
</svg>
