<?xml version="1.0" encoding="iso-8859-1"?>
<!-- Generator: Adobe Illustrator 19.0.0, SVG Export Plug-In . SVG Version: 6.00 Build 0)  -->
<svg version="1.1" id="Layer_1" xmlns="http://www.w3.org/2000/svg" xmlns:xlink="http://www.w3.org/1999/xlink" x="0px" y="0px"
	 viewBox="0 0 399.6 399.6" style="enable-background:new 0 0 399.6 399.6;" xml:space="preserve">
<g transform="translate(26 22)">
	<g>
		<path style="fill:#89DB4A;" d="M318,295.842c-2,0-4.4-0.8-6-2.4c-3.2-3.2-2.8-8.4,0.4-11.2c29.6-27.6,45.6-64.4,45.6-104.4
			c0-39.6-16.4-77.6-45.6-104c-3.2-2.8-3.6-8-0.4-11.2c2.8-3.2,8-3.6,11.2-0.4c32,29.6,50.4,71.6,50.4,116s-18,85.6-50.4,116
			C322,295.042,320,295.842,318,295.842z"/>
		<path style="fill:#89DB4A;" d="M294,251.442c-2,0-3.6-0.8-5.2-2c-3.2-2.8-4-8-0.8-11.2c14-16.8,22-38.4,22-60.4s-8-43.6-22-60.4
			c-2.8-3.2-2.4-8.4,0.8-11.2c3.2-2.8,8.4-2.4,11.2,0.8c16.8,20,26,44.8,26,70.8s-9.2,50.8-26,70.8
			C298.4,250.642,296.4,251.442,294,251.442z"/>
		<path style="fill:#89DB4A;" d="M262,215.442c-1.2,0-2.8-0.4-4-1.2c-4-2.4-5.2-7.2-2.8-10.8c4.4-7.6,6.8-16.4,6.8-25.6
			s-2.4-17.6-6.8-25.6c-2.4-4-0.8-8.8,2.8-10.8c4-2.4,8.8-0.8,10.8,2.8c6,10.4,9.2,21.6,9.2,33.6s-3.2,23.6-9.2,33.6
			C267.2,213.842,264.8,215.442,262,215.442z"/>
	</g>
	<path style="fill:#FFE53C;" d="M74.8,252.242l134.4,102c5.2,4,12.8,0.4,12.8-6.4v-340c0-6.8-7.6-10.4-12.8-6.4L78,100.642"/>
	<path style="fill:#F8D133;" d="M78,252.242l131.2,102c5.2,4,12.8,0.4,12.8-6.4v-40c0-22-17.2-45.6-38-52.4l-106-34.8V252.242z"/>
	<path style="fill:#C39215;" d="M214,363.842c-3.6,0-6.8-1.2-9.6-3.2l-134.4-102c-3.6-2.8-4.4-7.6-1.6-11.2s7.6-4.4,11.2-1.6
		l134.4,102v-340l-131.2,99.2c-3.6,2.8-8.4,2-11.2-1.6c-2.8-3.6-2-8.4,1.6-11.2l131.2-99.2c4.8-3.6,11.2-4.4,16.8-1.6
		c5.2,2.8,8.8,8.4,8.8,14.4v340c0,6-3.6,11.6-8.8,14.4C218.8,363.442,216.4,363.842,214,363.842z"/>
	<g>
		<path style="fill:#FFC33B;" d="M78,251.842c0,8.8-7.2,16-16,16H14c-17.6,0-32-14.4-32-32v-112c0-17.6,14.4-32,32-32h48
			c8.8,0,16,7.2,16,16v64"/>
		<path style="fill:#C39215;" d="M62,275.842H14c-22,0-40-18-40-40v-112c0-22,18-40,40-40h48c13.2,0,24,10.8,24,24v64
			c0,4.4-3.6,8-8,8s-8-3.6-8-8v-64c0-4.4-3.6-8-8-8H14c-13.2,0-24,10.8-24,24v112c0,13.2,10.8,24,24,24h48c4.4,0,8-3.6,8-8
			c0-4.4,3.6-8,8-8s8,3.6,8,8C86,265.042,75.2,275.842,62,275.842z"/>
	</g>
	<path style="fill:#C39215;" d="M78,223.842c-4.4,0-8-3.6-8-8v-12c0-4.4,3.6-8,8-8s8,3.6,8,8v12C86,220.242,82.4,223.842,78,223.842
		z"/>
</g>
<g>
</g>
<g>
</g>
<g>
</g>
<g>
</g>
<g>
</g>
<g>
</g>
<g>
</g>
<g>
</g>
<g>
</g>
<g>
</g>
<g>
</g>
<g>
</g>
<g>
</g>
<g>
</g>
<g>
</g>
</svg>
